<?xml version="1.0" encoding="UTF-8" standalone="no"?>
<svg
   xmlns:dc="http://purl.org/dc/elements/1.1/"
   xmlns:cc="http://creativecommons.org/ns#"
   xmlns:rdf="http://www.w3.org/1999/02/22-rdf-syntax-ns#"
   xmlns:svg="http://www.w3.org/2000/svg"
   xmlns="http://www.w3.org/2000/svg"
   xmlns:sodipodi="http://sodipodi.sourceforge.net/DTD/sodipodi-0.dtd"
   xmlns:inkscape="http://www.inkscape.org/namespaces/inkscape"
   width="16px"
   height="16px"
   viewBox="0 0 16 16"
   version="1.1"
   id="svg11"
   sodipodi:docname="fetch.svg"
   inkscape:version="0.92.1 r15371">
  <metadata
     id="metadata15">
    <rdf:RDF>
      <cc:Work
         rdf:about="">
        <dc:format>image/svg+xml</dc:format>
        <dc:type
           rdf:resource="http://purl.org/dc/dcmitype/StillImage" />
        <dc:title>cloud-download</dc:title>
      </cc:Work>
    </rdf:RDF>
  </metadata>
  <sodipodi:namedview
     pagecolor="#ffffff"
     bordercolor="#666666"
     borderopacity="1"
     objecttolerance="10"
     gridtolerance="10"
     guidetolerance="10"
     inkscape:pageopacity="0"
     inkscape:pageshadow="2"
     inkscape:window-width="640"
     inkscape:window-height="480"
     id="namedview13"
     showgrid="false"
     inkscape:zoom="14.75"
     inkscape:cx="8"
     inkscape:cy="8"
     inkscape:window-x="0"
     inkscape:window-y="0"
     inkscape:window-maximized="0"
     inkscape:current-layer="svg11" />
  <!-- Generator: Sketch 40.3 (33839) - http://www.bohemiancoding.com/sketch -->
  <title
     id="title2">cloud-download</title>
  <desc
     id="desc4">Created with Sketch.</desc>
  <defs
     id="defs6" />
  <g
     id="Octicons"
     stroke="none"
     stroke-width="1"
     fill="none"
     fill-rule="evenodd"
     style="fill:#808080">
    <g
       id="cloud-download"
       fill="#000000"
       style="fill:#808080">
      <path
         d="M9,12 L11,12 L8,15 L5,12 L7,12 L7,7 L9,7 L9,12 L9,12 Z M12,4 C12,3.56 11.09,1 7.5,1 C5.08,1 3,2.92 3,5 C1.02,5 0,6.52 0,8 C0,9.53 1,11 3,11 L6,11 L6,9.7 L3,9.7 C1.38,9.7 1.3,8.28 1.3,8 C1.3,7.83 1.35,6.3 3,6.3 L4.3,6.3 L4.3,5 C4.3,3.61 5.86,2.3 7.5,2.3 C10.05,2.3 10.63,3.85 10.7,4.1 L10.7,5.3 L12,5.3 C12.81,5.3 14.7,5.52 14.7,7.5 C14.7,9.59 12.45,9.7 12,9.7 L10,9.7 L10,11 L12,11 C14.08,11 16,9.84 16,7.5 C16,5.06 14.08,4 12,4 L12,4 Z"
         id="Shape"
         style="fill:#808080" />
    </g>
  </g>
</svg>
